# xmcd
#
# Track frame offsets:
#	150
#	14624
#	29623
#	42515
#	57916
#	71351
#	91444
#	114073
#	136187
#	153077
#	163590
#	180417
#	210070
#
# Disc length: 3263 seconds
#
# Revision: 0
# Processed by: cddbd v1.5.1PL0 Copyright (c) Steve Scherf et al.
# Submitted via: dBpowerAMP V4.0
#
DISCID=9c0cbd0d
DTITLE=Kasey Chambers - Barricades and Brickwalls
DYEAR=2001
DGENRE=Pop
TTITLE0=Barricades and Brickwalls
TTITLE1=Not Pretty Enough
TTITLE2=On A Bad Day
TTITLE3=Runaway Train
TTITLE4=A Little Bit Lonesome
TTITLE5=Nullabor Song
TTITLE6=Million Tears
TTITLE7=Still Feeling Blue
TTITLE8=This Mountain
TTITLE9=Crossfire
TTITLE10=Falling Into You
TTITLE11=If I Were You
TTITLE12=I Still Pray
EXTD=
EXTT0=
EXTT1=
EXTT2=
EXTT3=
EXTT4=
EXTT5=
EXTT6=
EXTT7=
EXTT8=
EXTT9=
EXTT10=
EXTT11=
EXTT12=
PLAYORDER=
